<svg xmlns="http://www.w3.org/2000/svg" viewBox="0 0 512 512">
  <defs>
    <linearGradient id="sunGradient" x1="0%" y1="0%" x2="100%" y2="100%">
      <stop offset="0%" style="stop-color:#FFB800;stop-opacity:1" />
      <stop offset="100%" style="stop-color:#FF820A;stop-opacity:1" />
    </linearGradient>
    <filter id="shadow" x="-20%" y="-20%" width="140%" height="140%">
      <feGaussianBlur in="SourceAlpha" stdDeviation="10" />
      <feOffset dx="5" dy="5" result="offsetblur" />
      <feComponentTransfer>
        <feFuncA type="linear" slope="0.3" />
      </feComponentTransfer>
      <feMerge>
        <feMergeNode />
        <feMergeNode in="SourceGraphic" />
      </feMerge>
    </filter>
  </defs>
  <rect width="512" height="512" rx="112" fill="#0a0b1e"/>
  <circle cx="180" cy="180" r="90" fill="url(#sunGradient)" filter="url(#shadow)"/>
  <path d="M410 360c0 44.183-35.817 80-80 80H190c-55.228 0-100-44.772-100-100 0-51.104 38.257-93.266 87.962-99.283C190.71 285.494 232.062 240 282 240c54.343 0 98.71 43.146 99.972 97.054C381.82 334.86 385.83 334 390 334c11.046 0 20 8.954 20 20v6z" fill="#ffffff" opacity="0.95" filter="url(#shadow)"/>
</svg>
